<svg xmlns="http://www.w3.org/2000/svg" width="600" height="600" viewBox="0 0 600 600" fill="none">
  <g stroke="#C9A84C" stroke-width="1" fill="none" opacity="0.9">
    <path d="M-20 120 C 90 60, 190 160, 300 110 S 520 40, 620 100"/>
    <path d="M-20 170 C 90 110, 200 210, 310 160 S 520 90, 620 150"/>
    <path d="M-20 230 C 100 170, 210 260, 320 215 S 530 150, 620 210"/>
    <path d="M-20 300 C 110 240, 220 330, 330 285 S 540 220, 620 280"/>
    <path d="M-20 370 C 100 320, 210 400, 320 355 S 530 300, 620 350"/>
    <path d="M-20 440 C 90 390, 200 470, 310 425 S 520 370, 620 420"/>
    <path d="M-20 510 C 100 460, 210 540, 320 495 S 530 440, 620 490"/>
    <circle cx="150" cy="140" r="28"/>
    <circle cx="150" cy="140" r="52"/>
    <circle cx="150" cy="140" r="80"/>
    <circle cx="450" cy="420" r="26"/>
    <circle cx="450" cy="420" r="50"/>
    <circle cx="450" cy="420" r="78"/>
  </g>
</svg>
