<svg xmlns="http://www.w3.org/2000/svg" viewBox="0 0 880 560" font-family="Avenir Next,Segoe UI,Helvetica Neue,Arial,sans-serif">
<defs>
  <linearGradient id="ground" x1="0" y1="0" x2="0" y2="1">
    <stop offset="0" stop-color="#0A1626"/><stop offset=".55" stop-color="#071120"/><stop offset="1" stop-color="#050B15"/>
  </linearGradient>
  <radialGradient id="aur" cx=".5" cy=".5" r=".5">
    <stop offset="0" stop-color="#E8C766" stop-opacity=".16"/><stop offset="1" stop-color="#E8C766" stop-opacity="0"/>
  </radialGradient>
  <radialGradient id="aurG" cx=".5" cy=".5" r=".5">
    <stop offset="0" stop-color="#C9A84C" stop-opacity=".12"/><stop offset="1" stop-color="#C9A84C" stop-opacity="0"/>
  </radialGradient>
  <linearGradient id="glass" x1="0" y1="0" x2="0" y2="1">
    <stop offset="0" stop-color="#FFFFFF" stop-opacity=".07"/><stop offset="1" stop-color="#FFFFFF" stop-opacity=".025"/>
  </linearGradient>
  <linearGradient id="goldline" x1="0" y1="0" x2="1" y2="0">
    <stop offset="0" stop-color="#C9A84C" stop-opacity="0"/><stop offset=".5" stop-color="#F0D878" stop-opacity=".9"/><stop offset="1" stop-color="#C9A84C" stop-opacity="0"/>
  </linearGradient>
  <filter id="soft" x="-60%" y="-60%" width="220%" height="220%"><feGaussianBlur stdDeviation="10"/></filter>
  <pattern id="dots" width="26" height="26" patternUnits="userSpaceOnUse">
    <circle cx="1.2" cy="1.2" r="1.2" fill="#FFFFFF" opacity=".045"/>
  </pattern>
  <linearGradient id="vig" x1="0" y1="0" x2="0" y2="1">
    <stop offset="0" stop-color="#02060C" stop-opacity=".55"/><stop offset=".22" stop-color="#02060C" stop-opacity="0"/>
    <stop offset=".78" stop-color="#02060C" stop-opacity="0"/><stop offset="1" stop-color="#02060C" stop-opacity=".6"/>
  </linearGradient>
</defs>
<rect width="880" height="560" fill="url(#ground)"/>
<rect width="880" height="560" fill="url(#dots)"/>
<circle cx="250" cy="420" r="330" fill="url(#aur)"/>
<circle cx="130" cy="480" r="300" fill="url(#aurG)"/>

<g transform="translate(56,48)"><rect x="0" y="0" width="30" height="30" rx="9" fill="#C9A84C" fill-opacity=".13" stroke="#C9A84C" stroke-opacity=".5" stroke-width="1"/><path d="M7 20 L13 10 L16.5 14.5 L19.5 9 L24 20" fill="none" stroke="#F0D878" stroke-width="1.7" stroke-linecap="round" stroke-linejoin="round"/><text x="42" y="14" font-size="10.5" font-weight="800" letter-spacing="3" fill="rgba(240,237,232,.5)">METANOIA</text><text x="42" y="28" font-size="14.5" font-weight="700" letter-spacing=".4" fill="rgba(240,237,232,.94)">The Pivot Framework</text></g>
<text x="56" y="118" font-size="11.5" font-weight="800" letter-spacing="3.4" fill="#E8C766" opacity=".95">CAREER TRANSITION &#183; TRANSFER MAP</text>

<rect x="56" y="140" width="380" height="300" rx="18" fill="url(#glass)" stroke="rgba(255,255,255,.13)" stroke-width="1"/><rect x="56" y="140" width="380" height="300" rx="18" fill="none" stroke="#000" stroke-opacity=".25" stroke-width="1" transform="translate(0,1.5)"/>
<text x="84" y="176" font-size="15" font-weight="700" letter-spacing="0.2" fill="rgba(240,237,232,.92)" text-anchor="start">Route options</text>
<g stroke-linecap="round" fill="none">
  <path d="M120 330 C 180 330 200 330 246 330" stroke="rgba(255,255,255,.3)" stroke-width="2.5"/>
  <path d="M246 330 C 300 330 310 250 396 236" stroke="#E8C766" stroke-width="3"/>
  <path d="M246 330 C 300 330 316 380 398 388" stroke="rgba(255,255,255,.16)" stroke-width="2.5" stroke-dasharray="6 7"/>
</g>
<circle cx="120" cy="330" r="7" fill="rgba(255,255,255,.35)"/>
<circle cx="246" cy="330" r="9" fill="#0A1626" stroke="#F0D878" stroke-width="2"/>
<circle cx="246" cy="330" r="16" fill="#F0D878" opacity=".18"><animate attributeName="r" values="12;20;12" dur="2.8s" repeatCount="indefinite"/></circle>
<circle cx="396" cy="236" r="7" fill="#E8C766"/>
<circle cx="398" cy="388" r="6" fill="rgba(255,255,255,.2)"/>
<text x="120" y="356" font-size="11.5" font-weight="700" letter-spacing="0.5" fill="rgba(240,237,232,.55)" text-anchor="middle">Operations</text>
<text x="246" y="310" font-size="11.5" font-weight="800" letter-spacing="0.5" fill="#F0D878" text-anchor="middle">You are here</text>
<text x="368" y="218" font-size="12" font-weight="800" letter-spacing="0.4" fill="#E8C766" text-anchor="end">Product Management</text>
<text x="370" y="410" font-size="11.5" font-weight="700" letter-spacing="0.4" fill="rgba(240,237,232,.45)" text-anchor="end">Stay &#183; senior track</text>

<rect x="464" y="140" width="364" height="300" rx="18" fill="url(#glass)" stroke="rgba(255,255,255,.13)" stroke-width="1"/><rect x="464" y="140" width="364" height="300" rx="18" fill="none" stroke="#000" stroke-opacity=".25" stroke-width="1" transform="translate(0,1.5)"/>
<text x="492" y="172" font-size="11.5" font-weight="800" letter-spacing="3.4" fill="#E8C766" opacity=".95">WHAT TRANSFERS</text>
<text x="492" y="210" font-size="13" font-weight="700" letter-spacing="0.2" fill="rgba(240,237,232,0.9)" text-anchor="start">Stakeholder Mgmt</text><rect x="492" y="222" width="220" height="7" rx="3.5" fill="rgba(255,255,255,.09)"/><rect x="492" y="222" width="211" height="7" rx="3.5" fill="#E8C766"/><circle cx="703" cy="225.5" r="6.0" fill="#E8C766" opacity=".35" filter="url(#soft)"/><text x="748" y="216" font-size="12.5" font-weight="800" letter-spacing="0.2" fill="#E8C766" text-anchor="start">96%</text><text x="492" y="262" font-size="13" font-weight="700" letter-spacing="0.2" fill="rgba(240,237,232,0.9)" text-anchor="start">Systems Thinking</text><rect x="492" y="274" width="220" height="7" rx="3.5" fill="rgba(255,255,255,.09)"/><rect x="492" y="274" width="194" height="7" rx="3.5" fill="#E8C766"/><circle cx="686" cy="277.5" r="6.0" fill="#E8C766" opacity=".35" filter="url(#soft)"/><text x="748" y="268" font-size="12.5" font-weight="800" letter-spacing="0.2" fill="#E8C766" text-anchor="start">88%</text><text x="492" y="314" font-size="13" font-weight="700" letter-spacing="0.2" fill="rgba(240,237,232,0.9)" text-anchor="start">Data Analysis</text><rect x="492" y="326" width="220" height="7" rx="3.5" fill="rgba(255,255,255,.09)"/><rect x="492" y="326" width="163" height="7" rx="3.5" fill="#E8C766"/><circle cx="655" cy="329.5" r="6.0" fill="#E8C766" opacity=".35" filter="url(#soft)"/><text x="748" y="320" font-size="12.5" font-weight="800" letter-spacing="0.2" fill="#E8C766" text-anchor="start">74%</text><text x="492" y="366" font-size="13" font-weight="700" letter-spacing="0.2" fill="rgba(240,237,232,0.55)" text-anchor="start">Domain Knowledge</text><rect x="492" y="378" width="220" height="7" rx="3.5" fill="rgba(255,255,255,.09)"/><rect x="492" y="378" width="92" height="7" rx="3.5" fill="rgba(255,255,255,.28)"/><circle cx="584" cy="381.5" r="6.0" fill="rgba(255,255,255,.28)" opacity=".35" filter="url(#soft)"/><text x="748" y="372" font-size="12.5" font-weight="800" letter-spacing="0.2" fill="rgba(240,237,232,.5)" text-anchor="start">42%</text>

<rect x="56" y="462" width="772" height="46" rx="12" fill="url(#glass)" stroke="rgba(255,255,255,.13)" stroke-width="1"/><rect x="56" y="462" width="772" height="46" rx="12" fill="none" stroke="#000" stroke-opacity=".25" stroke-width="1" transform="translate(0,1.5)"/>
<text x="80" y="491" font-size="13.5" font-weight="600" letter-spacing="0.2" fill="rgba(240,237,232,.78)" text-anchor="start">Pivot readiness 74% &#8212; bridge plan: 2 skills, 90 days, no salary reset</text>
<text x="56" y="522" font-size="13.5" font-weight="400" letter-spacing="0.3" fill="rgba(240,237,232,.5)" text-anchor="start">Change direction without losing altitude.</text>

<rect width="880" height="560" fill="url(#vig)"/>
<rect x="60" y="26" width="760" height="1.4" fill="url(#goldline)" opacity=".55"/>
<rect x="60" y="533" width="760" height="1.4" fill="url(#goldline)" opacity=".4"/>
</svg>